# xmcd
#
# Track frame offsets:
#	150
#	17619
#	30971
#	43072
#	56932
#	68782
#	81590
#	94427
#	104580
#	118573
#	127805
#	142083
#
# Disc length: 2069 seconds
#
# Revision: 0
# Processed by: cddbd v1.5.2PL0 Copyright (c) Steve Scherf et al.
# Submitted via: audiograbber 1.82.01
#
DISCID=aa08130c
DTITLE=Tiroler Bluat - Herzschlag meiner Heimat
DYEAR=2007
DGENRE=
TTITLE0=Tirolerlandl
TTITLE1=Bozner Bergsteigermarsch
TTITLE2=Du bist mein Traumgirl
TTITLE3=Herzschlag meiner Heimat
TTITLE4=I mag mein Tirol
TTITLE5=Die Schleifer aus Paris
TTITLE6=Endlich Sommerzeit
TTITLE7=Wenn am Himmel weiße Wolken ziehen
TTITLE8=James Bond war niemals in Tirol
TTITLE9=In der Hüttn fliagn die Fetzen
TTITLE10=Für einen Tag in deinem Leben
TTITLE11=Ein Strauß Vergissmeinnicht
EXTD=
EXTT0=
EXTT1=
EXTT2=
EXTT3=
EXTT4=
EXTT5=
EXTT6=
EXTT7=
EXTT8=
EXTT9=
EXTT10=
EXTT11=
PLAYORDER=
